<svg width="27" height="50" viewBox="0 0 27 50" fill="none" xmlns="http://www.w3.org/2000/svg">
<path fill-rule="evenodd" clip-rule="evenodd" d="M26.4336 0.56491C26.2545 0.385842 26.0417 0.24377 25.8074 0.146834C25.5732 0.0498974 25.3221 0 25.0685 0C24.8149 0 24.5637 0.0498974 24.3295 0.146834C24.0953 0.24377 23.8825 0.385842 23.7034 0.56491L0.566444 23.6391C0.38689 23.8177 0.244434 24.0299 0.147234 24.2635C0.0500336 24.4971 0 24.7476 0 25.0005C0 25.2534 0.0500336 25.5039 0.147234 25.7375C0.244434 25.9711 0.38689 26.1833 0.566444 26.3619L23.7034 49.4361C24.0654 49.7972 24.5565 50 25.0685 50C25.5805 50 26.0715 49.7972 26.4336 49.4361C26.7956 49.075 26.999 48.5853 26.999 48.0747C26.999 47.5641 26.7956 47.0744 26.4336 46.7133L4.65783 25.0005L26.4336 3.28767C26.6131 3.10905 26.7556 2.89686 26.8528 2.66325C26.95 2.42965 27 2.17921 27 1.92629C27 1.67337 26.95 1.42293 26.8528 1.18932C26.7556 0.955715 26.6131 0.743526 26.4336 0.56491Z" fill="#3D4943"/>
</svg>
