<svg width="27" height="50" viewBox="0 0 27 50" fill="none" xmlns="http://www.w3.org/2000/svg">
<path fill-rule="evenodd" clip-rule="evenodd" d="M0.566445 0.56491C0.745546 0.385842 0.958312 0.24377 1.19256 0.146834C1.4268 0.0498974 1.67792 0 1.93152 0C2.18513 0 2.43625 0.0498974 2.67049 0.146834C2.90474 0.24377 3.1175 0.385842 3.29661 0.56491L26.4336 23.6391C26.6131 23.8177 26.7556 24.0299 26.8528 24.2635C26.95 24.4971 27 24.7476 27 25.0005C27 25.2534 26.95 25.5039 26.8528 25.7375C26.7556 25.9711 26.6131 26.1833 26.4336 26.3619L3.29661 49.4361C2.93456 49.7972 2.44353 50 1.93152 50C1.41952 50 0.928486 49.7972 0.566445 49.4361C0.204403 49.075 0.00100948 48.5853 0.00100948 48.0747C0.00100948 47.5641 0.204403 47.0744 0.566445 46.7133L22.3422 25.0005L0.566445 3.28767C0.386889 3.10905 0.244431 2.89686 0.147231 2.66325C0.0500313 2.42965 0 2.17921 0 1.92629C0 1.67337 0.0500313 1.42293 0.147231 1.18932C0.244431 0.955715 0.386889 0.743526 0.566445 0.56491Z" fill="#3D4943"/>
</svg>
